<?xml version="1.0" standalone="no"?><!DOCTYPE svg PUBLIC "-//W3C//DTD SVG 1.1//EN" "http://www.w3.org/Graphics/SVG/1.1/DTD/svg11.dtd"><svg t="1740737305972" class="icon" viewBox="0 0 1024 1024" version="1.1" xmlns="http://www.w3.org/2000/svg" p-id="8524" xmlns:xlink="http://www.w3.org/1999/xlink" width="200" height="200"><path d="M160 64C105.6 64 64 105.6 64 160v704c0 54.4 41.6 96 96 96h704c54.4 0 96-41.6 96-96V160c0-54.4-41.6-96-96-96H160z" fill="#FFFFFF" p-id="8525"></path><path d="M352 252.8v544h387.2V704h-278.4V252.8z" fill="#FFFFFF" p-id="8526"></path><path d="M864 64H160C105.6 64 64 105.6 64 160v704c0 54.4 41.6 96 96 96h704c54.4 0 96-41.6 96-96V160c0-54.4-41.6-96-96-96z m-124.8 732.8H352v-544h112V704h275.2v92.8z" p-id="8527"></path></svg>